<?xml version="1.0" standalone="no"?>
<!DOCTYPE svg PUBLIC "-//W3C//DTD SVG 20010904//EN"
 "http://www.w3.org/TR/2001/REC-SVG-20010904/DTD/svg10.dtd">
<svg version="1.0" xmlns="http://www.w3.org/2000/svg"
 width="700.000000pt" height="700.000000pt" viewBox="0 0 700.000000 700.000000"
 preserveAspectRatio="xMidYMid meet">
<metadata>
Created by potrace 1.11, written by Peter Selinger 2001-2013
</metadata>
<g transform="translate(0.000000,700.000000) scale(0.100000,-0.100000)"
fill="#000000" stroke="none">
<path d="M3290 6930 c-1106 -60 -2106 -627 -2715 -1540 -295 -442 -476 -937
-541 -1475 -23 -191 -23 -560 0 -750 60 -489 214 -943 463 -1357 82 -136 93
-141 166 -72 181 170 377 371 377 387 0 10 -20 54 -45 98 -285 502 -401 1148
-309 1732 138 884 700 1646 1514 2053 742 372 1619 400 2389 78 58 -25 157
-72 221 -105 121 -64 340 -203 340 -217 0 -4 -31 -39 -70 -77 -38 -38 -70 -77
-70 -86 0 -9 8 -23 18 -32 10 -10 243 -83 516 -163 539 -158 546 -160 546 -97
0 16 -61 246 -135 513 -138 493 -148 520 -192 520 -8 0 -45 -29 -82 -64 l-66
-65 -40 31 c-22 16 -99 69 -170 116 -611 406 -1372 612 -2115 572z"/>
<path d="M3498 5633 c-24 -28 -1197 -2058 -1244 -2153 -84 -170 -118 -315
-118 -510 0 -204 35 -346 135 -540 190 -371 564 -635 1007 -711 155 -26 379
-26 534 0 557 96 982 472 1114 988 25 96 28 126 28 263 0 134 -4 170 -27 261
-14 58 -43 146 -64 195 -36 83 -1237 2168 -1271 2207 -8 9 -29 17 -47 17 -18
0 -38 -8 -47 -17z"/>
<path d="M6196 5066 c-159 -154 -208 -208 -208 -227 0 -13 19 -58 42 -98 139
-244 258 -594 304 -896 85 -554 -3 -1124 -250 -1618 -146 -291 -298 -502 -528
-733 -457 -458 -1046 -740 -1701 -816 -158 -18 -511 -15 -665 6 -386 52 -717
160 -1034 337 -123 69 -286 175 -286 187 0 4 27 34 60 67 61 60 76 99 48 123
-17 14 -979 292 -1010 292 -14 0 -33 -9 -42 -19 -17 -19 -12 -40 124 -518 78
-274 149 -506 158 -515 27 -31 54 -21 124 49 66 66 69 67 92 53 13 -8 88 -58
167 -111 482 -323 1009 -512 1619 -580 135 -15 533 -15 675 0 262 28 563 93
793 172 1262 434 2155 1530 2307 2828 20 168 20 594 0 762 -54 463 -199 895
-442 1319 -70 123 -85 140 -117 139 -13 0 -99 -76 -230 -203z"/>
</g>
</svg>
